<svg width="150" height="52" viewBox="0 0 150 52" fill="none" xmlns="http://www.w3.org/2000/svg">
<path fill-rule="evenodd" clip-rule="evenodd" d="M17.2353 34.6228C7.71764 34.6228 0 26.9001 0 17.3762C0 7.85234 7.71764 0.129639 17.2353 0.129639V34.6228Z" fill="#00D8AE"/>
<path fill-rule="evenodd" clip-rule="evenodd" d="M8.6178 14.7657C18.1354 14.7657 25.8531 22.4884 25.8531 32.0123C25.8531 41.5361 18.1354 49.2588 8.6178 49.2588V14.7657Z" fill="#0099AD"/>
<path d="M35.15 39.5612V34.1224C36.6353 35.1995 39.4559 36.2767 42.4324 36.2767C45.9206 36.2767 47.253 35.0436 47.253 33.4543C47.253 32.1181 46.4324 31.453 44.3294 30.5789L41.0971 29.2427C37.303 27.6534 35.2 25.5991 35.2 21.9556C35.2 17.797 39.1 14.3594 45.5088 14.3594C47.7647 14.3594 50.2294 15.0275 51.3059 15.7456V21.1345C49.8706 20.4163 47.9735 19.7483 45.6647 19.7483C42.8941 19.7483 41.253 20.6194 41.253 22.1086C41.253 23.2388 41.7647 23.8539 43.5088 24.572L46.6883 25.8552C50.9441 27.5504 52.9971 29.8078 52.9971 33.5543C52.9971 37.4039 49.6618 41.6126 42.4824 41.6126C39.253 41.6155 36.5353 40.6914 35.15 39.5612Z" fill="white"/>
<path d="M73.5675 40.7945L62.2322 27.6565V40.7945H56.5881V2.29871H62.2322V26.8324L73.0558 15.1306H80.3381L68.9499 27.0384L81.1058 40.7945H73.5675Z" fill="white"/>
<path d="M82.2383 6.97215C82.2383 4.4558 83.8294 3.17261 86.1383 3.17261C88.4971 3.17261 90.0353 4.4558 90.0353 6.97215C90.0353 9.28249 88.4971 10.6157 86.1383 10.6157C83.8294 10.6128 82.2383 9.27955 82.2383 6.97215ZM83.0088 15.1304H89.1647V40.7943H83.0088V15.1304Z" fill="white"/>
<path d="M121.018 27.9095C121.018 35.6086 115.682 41.6126 108.603 41.6126C105.321 41.6126 102.603 40.2764 100.756 37.557V51.313H94.6V15.1305H100.347V19.0831C102.141 15.9517 105.068 14.3594 108.656 14.3594C115.732 14.3594 121.018 20.2133 121.018 27.9095ZM114.962 27.9095C114.962 22.9827 111.832 19.6982 107.524 19.6982C103.062 19.6982 99.7794 22.9827 99.7794 27.9625C99.7794 32.9922 103.062 36.2237 107.524 36.2237C111.835 36.2237 114.962 32.8892 114.962 27.9095Z" fill="white"/>
<path d="M122.559 27.9625C122.559 20.1603 128.815 14.3594 136.253 14.3594C143.794 14.3594 150 20.2103 150 27.9625C150 35.7146 143.794 41.6155 136.253 41.6155C128.815 41.6155 122.559 35.7646 122.559 27.9625ZM144 27.9625C144 22.9827 140.718 19.7512 136.253 19.7512C131.947 19.7512 128.509 22.9827 128.509 27.9625C128.509 32.8892 131.947 36.2237 136.253 36.2237C140.718 36.2237 144 32.8892 144 27.9625Z" fill="white"/>
<path fill-rule="evenodd" clip-rule="evenodd" d="M17.2354 34.6231V17.094C14.6972 15.6224 11.7619 14.7689 8.6178 14.7689V32.298C11.1531 33.7666 14.0913 34.6231 17.2354 34.6231Z" fill="#06BCC9"/>
</svg>
